<svg class="svg-icon" style="width: 1em; height: 1em;vertical-align: middle;fill: currentColor;overflow: hidden;" viewBox="0 0 1024 1024" version="1.1" xmlns="http://www.w3.org/2000/svg"><path d="M886.24513 843.423251q8.5571-3.437467 14.846934-1.682165t6.289834 10.019852-8.5571 19.162053q-7.460036 9.142201-25.159336 24.866786t-54.560654 38.836069-80.597642 42.273536-107.439143 33.131336-131.135727 13.969283q-68.017974 0-135.962809-17.699301t-119.433711-43.736288-98.589493-59.460874-75.697422-59.972837-47.97827-50.026122q-4.534532-5.119632-5.704733-9.434751t0.585101-6.874935 4.534532-4.022568 6.582385-1.170202 6.582385 2.559816q109.706409 66.847772 171.434548 94.859475 222.265185 100.564208 456.524936 51.415737 108.536207-22.818933 223.435386-77.160174zM1004.508639 777.745681q6.289834 9.142201 1.462752 39.71372t-16.309686 58.583222q-19.454603 47.393169-48.56337 70.87034-9.727302 7.971999-14.846934 5.119632t0-13.676732q11.994567-25.744437 25.451887-69.407588t3.730018-56.315957q-2.852367-4.022568-8.84965-6.582385t-15.432035-3.437467-16.821649-1.462752-19.966566 0-17.991851 1.170202-17.699301 1.682165-12.872219 1.170202q-3.437467 0.585101-7.460036 0.877651t-6.289834 0.585101-4.827082 0.585101-4.022568 0.29255l-5.704733 0t-1.682165-0.29255-1.170202-0.877651l-0.877651-1.682165q-3.437467-9.142201 26.841501-22.818933t58.875773-17.1142q26.256401-4.022568 61.728139-0.585101t43.443738 13.676732zM779.391087 524.616427q0 17.699301 7.679449 36.568803t18.284401 33.131336 21.429319 26.256401 18.869502 18.284401l7.460036 6.289834-129.672975 127.99081q-22.818933-21.136768-45.125903-43.151188t-33.131336-33.423886l-10.824366-11.409467q-6.289834-6.289834-14.261833-18.869502-21.721869 33.716436-55.730856 58.583222t-72.845056 36.276253-80.012541 13.164769-78.549789-11.994567-67.140322-37.446454-47.393169-64.580506-17.699301-92.88476q0-47.97827 16.017136-87.98454t41.176472-66.555221 60.850488-47.393169 69.992689-32.546235 74.307808-19.747154 68.310524-10.604953 56.82792-3.730018l0-72.552505q0-37.153904-11.994567-55.438305-19.454603-30.278969-69.115038-30.278969-3.437467 0-9.434751 0.585101t-23.111483 6.874935-32.034271 16.821649-32.034271 34.008987-27.426602 54.853204l-167.997081-15.432035q0-34.301537 12.579668-68.017974t38.250968-64.580506 61.728139-54.268104 86.594925-37.446454 108.828758-13.969283q57.12047 0 103.416575 14.261833t74.015257 35.106051 46.296105 47.393169 25.744437 49.148471 7.167485 41.980986l0 336.579263zM395.418656 536.610994q0 49.148471 40.00627 75.989973 37.739005 25.159336 79.42744 12.579668 47.97827-14.261833 65.165607-70.285239 7.971999-25.744437 7.971999-57.705571l0-92.592209q-33.716436 1.170202-63.410304 6.874935t-60.850488 19.162053-49.733572 40.591371-18.576952 65.458157z"  /></svg>